<svg width="198" height="198" viewBox="0 0 198 198" fill="none" xmlns="http://www.w3.org/2000/svg">
<path d="M197.51 98.7874C197.51 148.679 160.538 189.926 112.508 196.62C108.017 197.243 103.422 197.568 98.7583 197.568C93.3748 197.568 88.0881 197.139 82.9398 196.308C35.9134 188.736 0 147.953 0 98.7874C0 44.2301 44.217 0 98.7514 0C153.286 0 197.51 44.2301 197.51 98.7874Z" fill="#1877F2"/>
<path d="M112.508 79.3165V100.836H139.121L134.907 129.825H112.508V196.613C108.017 197.236 103.422 197.561 98.7583 197.561C93.3747 197.561 88.088 197.132 82.9398 196.301V129.825H58.3955V100.836H82.9398V74.5059C82.9398 58.1706 96.1772 44.9223 112.515 44.9223V44.9361C112.563 44.9361 112.605 44.9223 112.653 44.9223H139.128V69.9929H121.829C116.687 69.9929 112.515 74.1667 112.515 79.3096L112.508 79.3165Z" fill="white"/>
</svg>
