<svg width="198" height="198" viewBox="0 0 198 198" fill="none" xmlns="http://www.w3.org/2000/svg">
<path d="M98.9797 0H98.53C44.1134 0 0 44.1264 0 98.559V99.0089C0 153.441 44.1134 197.568 98.53 197.568H98.9797C153.396 197.568 197.51 153.441 197.51 99.0089V98.559C197.51 44.1264 153.396 0 98.9797 0Z" fill="url(#paint0_linear_1_360)"/>
<path d="M129.316 40.1948H68.2008C51.3166 40.1948 37.581 53.9345 37.581 70.8236V126.751C37.581 143.64 51.3166 157.38 68.2008 157.38H129.316C146.2 157.38 159.936 143.64 159.936 126.751V70.8236C159.936 53.9345 146.2 40.1948 129.316 40.1948ZM48.3827 70.8236C48.3827 59.8941 57.2745 50.9996 68.2008 50.9996H129.316C140.242 50.9996 149.134 59.8941 149.134 70.8236V126.751C149.134 137.681 140.242 146.575 129.316 146.575H68.2008C57.2745 146.575 48.3827 137.681 48.3827 126.751V70.8236Z" fill="white"/>
<path d="M98.7584 127.271C114.459 127.271 127.24 114.493 127.24 98.7806C127.24 83.0682 114.466 70.2906 98.7584 70.2906C83.0506 70.2906 70.2768 83.0682 70.2768 98.7806C70.2768 114.493 83.0506 127.271 98.7584 127.271ZM98.7584 81.1024C108.508 81.1024 116.438 89.0347 116.438 98.7875C116.438 108.54 108.508 116.473 98.7584 116.473C89.0085 116.473 81.0785 108.54 81.0785 98.7875C81.0785 89.0347 89.0085 81.1024 98.7584 81.1024Z" fill="white"/>
<path d="M129.876 74.8935C134.104 74.8935 137.55 71.4534 137.55 67.2173C137.55 62.9811 134.111 59.541 129.876 59.541C125.642 59.541 122.202 62.9811 122.202 67.2173C122.202 71.4534 125.642 74.8935 129.876 74.8935Z" fill="white"/>
<defs>
<linearGradient id="paint0_linear_1_360" x1="28.8552" y1="168.704" x2="168.696" y2="28.9118" gradientUnits="userSpaceOnUse">
<stop stop-color="#FAAD4F"/>
<stop offset="0.35" stop-color="#DD2A7B"/>
<stop offset="0.62" stop-color="#9537B0"/>
<stop offset="1" stop-color="#515BD4"/>
</linearGradient>
</defs>
</svg>
